<svg width="27" height="24" viewBox="0 0 27 24" fill="none" xmlns="http://www.w3.org/2000/svg">
<path d="M17.2785 3.02719C16.2677 2.04234 14.8559 1.5 13.2976 1.5C11.7311 1.5 10.3146 2.03906 9.30845 3.01781C8.29141 4.00734 7.79588 5.35219 7.91223 6.80437C8.14286 9.66937 10.5587 12 13.2976 12C16.0366 12 18.4483 9.66984 18.6825 6.80531C18.8004 5.36625 18.3018 4.02422 17.2785 3.02719ZM22.4395 22.5H4.15575C3.91643 22.5028 3.67943 22.4574 3.46198 22.3672C3.24454 22.2769 3.05212 22.1441 2.89874 21.9783C2.56111 21.6141 2.42502 21.1167 2.52579 20.6137C2.96418 18.4191 4.33235 16.5755 6.48277 15.2812C8.39322 14.1323 10.8132 13.5 13.2976 13.5C15.7821 13.5 18.2021 14.1328 20.1125 15.2812C22.2629 16.575 23.6311 18.4186 24.0695 20.6133C24.1703 21.1162 24.0342 21.6136 23.6965 21.9778C23.5432 22.1437 23.3508 22.2766 23.1334 22.367C22.9159 22.4573 22.6789 22.5028 22.4395 22.5Z" fill="white"/>
</svg>
